<?xml version="1.0" encoding="UTF-8" standalone="no"?>
<!-- Created with Inkscape (http://www.inkscape.org/) -->

<svg
   xmlns:dc="http://purl.org/dc/elements/1.1/"
   xmlns:cc="http://creativecommons.org/ns#"
   xmlns:rdf="http://www.w3.org/1999/02/22-rdf-syntax-ns#"
   xmlns:svg="http://www.w3.org/2000/svg"
   xmlns="http://www.w3.org/2000/svg"
   xmlns:sodipodi="http://sodipodi.sourceforge.net/DTD/sodipodi-0.dtd"
   xmlns:inkscape="http://www.inkscape.org/namespaces/inkscape"
   width="112.44791mm"
   height="61.912502mm"
   viewBox="0 0 112.44791 61.912502"
   version="1.1"
   id="svg8"
   inkscape:version="0.92.5 (2060ec1f9f, 2020-04-08)"
   sodipodi:docname="caesars entertainment.svg">
  <defs
     id="defs2">
    <linearGradient
       x1="30.502523"
       y1="14.472346"
       x2="44.096886"
       y2="6.623363"
       id="linearGradient-180"
       gradientTransform="scale(0.9687651,1.032242)"
       gradientUnits="userSpaceOnUse">
      <stop
         id="stop897"
         stop-color="#976B29"
         offset="0%" />
      <stop
         id="stop899"
         stop-color="#EFB21E"
         offset="25.4141798%" />
      <stop
         id="stop901"
         stop-color="#6E3918"
         offset="41.7713931%" />
      <stop
         id="stop903"
         stop-color="#FFC808"
         offset="63.1860306%" />
      <stop
         id="stop905"
         stop-color="#643212"
         offset="100%" />
    </linearGradient>
    <style
       id="style908"
       type="text/css">
        #rings { fill: url(#linearGradient); }
      </style>
  </defs>
  <sodipodi:namedview
     id="base"
     pagecolor="#ffffff"
     bordercolor="#666666"
     borderopacity="1.0"
     inkscape:pageopacity="0.0"
     inkscape:pageshadow="2"
     inkscape:zoom="1.6821407"
     inkscape:cx="114.563"
     inkscape:cy="170.55973"
     inkscape:document-units="mm"
     inkscape:current-layer="layer1"
     showgrid="false"
     inkscape:pagecheckerboard="true"
     fit-margin-top="0"
     fit-margin-left="0"
     fit-margin-right="0"
     fit-margin-bottom="0"
     inkscape:window-width="1920"
     inkscape:window-height="1017"
     inkscape:window-x="1912"
     inkscape:window-y="70"
     inkscape:window-maximized="1" />
  <metadata
     id="metadata5">
    <rdf:RDF>
      <cc:Work
         rdf:about="">
        <dc:format>image/svg+xml</dc:format>
        <dc:type
           rdf:resource="http://purl.org/dc/dcmitype/StillImage" />
        <dc:title></dc:title>
      </cc:Work>
    </rdf:RDF>
  </metadata>
  <g
     inkscape:label="Layer 1"
     inkscape:groupmode="layer"
     id="layer1"
     transform="translate(-57.088209,-88.033326)">
    <g
       id="g930"
       transform="matrix(1.6080904,0,0,1.6043928,57.088209,88.032971)">
      <path
         id="path912"
         d="m 28.45705,30.409761 -0.253579,-0.05618 -0.848807,1.825163 H 23.921475 V 24.84013 h 3.433189 l 0.848807,1.825163 0.253579,-0.05618 v -2.172885 h -6.907375 v 0.403904 h 1.055314 v 7.338612 h -1.055314 v 0.403904 h 6.907375 v -2.172885 z m -2.268547,-0.139696 0.252061,-0.05922 v -3.211497 l -0.252061,-0.05922 -0.827549,1.664208 0.827549,1.665727 z m -11.227332,-5.868764 -0.09111,0.03493 v 0 l 0.08959,-0.04404 -0.06681,-0.179176 -0.218655,0.191323 -0.570933,0.393276 -2.970065,7.381128 h -1.055315 v 0.403904 h 2.532755 V 32.178742 H 11.56898 l 1.003687,-2.502386 h 2.963991 l 0.945987,2.502386 H 15.50629 v 0.403904 h 3.414967 v -0.403904 h -1.017353 z m -2.22603,4.869632 1.366594,-3.395228 1.284599,3.395228 z m 32.726898,3.311713 h 3.414967 v -0.403904 h -1.018872 l -2.941214,-7.777441 -0.09111,0.03493 v 0 l 0.08959,-0.04555 -0.06681,-0.176138 -0.218655,0.189804 -0.570933,0.393276 -2.96551,7.387202 h -1.055314 v 0.403904 h 2.532755 V 32.184816 H 41.529284 L 42.53449,29.68243 h 2.962473 l 0.947505,2.502386 h -0.982429 z m -2.77115,-3.311713 1.366595,-3.395228 1.284598,3.395228 z m 13.272668,-0.37961 -0.569414,-0.151844 c 0.513846,-0.107266 1.007743,-0.294271 1.463775,-0.55423 0.74859,-0.43731 1.160086,-1.012798 1.160086,-1.620173 0,-1.47744 -1.465293,-2.277657 -2.844034,-2.277657 h -3.923645 v 0.405423 h 1.049241 v 7.476789 h -1.049241 v 0.403905 h 3.413449 v -0.403905 h -1.047722 v -3.319306 h 0.850325 l 2.749892,3.736877 h 1.922343 v -0.403905 h -0.701519 z m -2.347505,-4.189371 h 1.047722 c 1.740131,0.06529 1.928417,1.460738 1.928417,2.055966 0,1.433405 -1.413666,1.670282 -2.979176,1.670282 z M 36.75987,28.381128 c -0.0091,0 -0.938395,-0.537527 -1.251193,-0.707592 L 35.122993,27.46551 c -0.392055,-0.19742 -0.772306,-0.417458 -1.138828,-0.659002 -0.254713,-0.176087 -0.409901,-0.463327 -0.417571,-0.772885 -0.02871,-0.299186 0.07059,-0.59654 0.273319,-0.818439 0.303688,-0.365943 1.002169,-0.490455 1.383297,-0.4859 0.691579,-5.55e-4 1.338827,0.340401 1.729501,0.911063 l 0.514751,1.270933 h 0.303688 v -1.99371 l -0.03037,-0.03644 c -0.16756,-0.167628 -0.371126,-0.294856 -0.595228,-0.372017 -0.691512,-0.248774 -1.434003,-0.321823 -2.160737,-0.212582 -0.632204,0.105738 -1.231396,0.356224 -1.75076,0.731887 -0.446599,0.308427 -0.726566,0.805088 -0.759219,1.346855 -0.03083,0.310825 0.03323,0.623698 0.183731,0.897397 0.148842,0.296533 0.381748,0.542642 0.669632,0.707592 0.315835,0.201953 0.771366,0.443384 1.460737,0.809328 l 0.198916,0.104772 c 0.455531,0.238395 0.745553,0.394794 0.990021,0.543601 0.23582,0.134147 0.446069,0.308926 0.621041,0.516269 0.168812,0.206598 0.274278,0.457606 0.303688,0.722776 0.05325,0.378866 -0.08297,0.759722 -0.364425,1.018872 -0.279393,0.290022 -0.812365,0.470716 -1.352929,0.455532 -0.768454,-0.02729 -1.492901,-0.365402 -2.007375,-0.936876 l -0.490455,-1.266378 h -0.326465 v 2.001302 l 0.03948,0.03948 c 0.169929,0.151477 0.36458,0.272684 0.575488,0.358351 0.510971,0.249982 1.071113,0.383276 1.639913,0.390244 0.209375,3.62e-4 0.41832,-0.01896 0.624078,-0.05771 0.687242,-0.127742 1.336043,-0.411365 1.896529,-0.829067 0.569016,-0.410535 0.894997,-1.078455 0.868547,-1.779609 -0.0076,-0.041 -0.01974,-1.091757 -1.245119,-1.690022 z m 30.716486,1.694577 c 0,-0.04555 -0.01215,-1.096312 -1.236009,-1.694577 -0.0091,0 -0.938395,-0.537527 -1.251193,-0.707592 L 64.603471,27.46551 c -0.392309,-0.197858 -0.77304,-0.417881 -1.140347,-0.659002 -0.25376,-0.176755 -0.408244,-0.463733 -0.416052,-0.772885 -0.02911,-0.298963 0.06963,-0.596287 0.2718,-0.818439 0.31128,-0.365943 1.005206,-0.490455 1.383297,-0.4859 0.692116,-0.0011 1.340042,0.339957 1.73102,0.911063 l 0.513232,1.270933 h 0.303687 v -1.99371 l -0.02885,-0.03644 c -0.167792,-0.167336 -0.371286,-0.29452 -0.595228,-0.372017 -0.692024,-0.248839 -1.435021,-0.321887 -2.162256,-0.212582 -0.632718,0.105567 -1.232442,0.356058 -1.752277,0.731887 -0.445743,0.309209 -0.725454,0.805416 -0.759219,1.346855 -0.02932,0.310745 0.03465,0.623177 0.183731,0.897397 0.149358,0.29617 0.382138,0.542146 0.669631,0.707592 0.314317,0.200434 0.76833,0.441866 1.454664,0.804772 l 0.211063,0.112365 c 0.44642,0.235358 0.740997,0.391757 0.985466,0.540564 0.23582,0.134147 0.446068,0.308926 0.621041,0.516269 0.169113,0.206417 0.274618,0.457518 0.303688,0.722776 0.05272,0.378811 -0.08342,0.759425 -0.364425,1.018872 -0.279393,0.290022 -0.813883,0.470716 -1.352929,0.455532 -0.76878,-0.02775 -1.493528,-0.365745 -2.008893,-0.936876 l -0.488938,-1.266378 h -0.326464 v 2.001302 l 0.03948,0.03948 c 0.169738,0.150974 0.363801,0.272135 0.573969,0.358351 0.511501,0.250009 1.072143,0.383298 1.641432,0.390243 0.209372,3.09e-4 0.418313,-0.01901 0.624078,-0.0577 0.687242,-0.127742 1.336043,-0.411365 1.896529,-0.829067 0.565416,-0.410773 0.888418,-1.076717 0.860955,-1.775054 z m -59.9327551,1.86616 v -1.999783 l -0.2550977,-0.05922 -0.9475054,1.899566 c -0.4831582,0.343882 -1.0605525,0.530515 -1.6535791,0.534491 -2.2427332,0 -3.2464209,-1.920825 -3.2464209,-3.824946 0,-2.429501 1.1828634,-3.824946 3.2464209,-3.824946 0.6355408,0.0038 1.2520556,0.217269 1.7537961,0.607375 l 0.8472884,1.697614 0.2520608,-0.05922 V 24.938827 L 7.447939,24.887197 C 6.6541943,24.462366 5.7668657,24.242621 4.8665944,24.247939 2.0498915,24.255531 0,26.039696 0,28.498048 c 0,2.733188 1.7310195,4.242516 4.875705,4.242516 0.9183759,-0.01899 1.8153276,-0.280947 2.5995661,-0.759219 z M 0.87462039,37.379393 H 2.332321 V 36.952711 H 0.87462039 V 36.191974 H 2.5039046 V 35.765293 H 0.42060738 v 2.824295 H 2.5236442 V 38.162907 H 0.87462039 Z M 7.7273319,37.763557 6.1572668,35.765293 H 5.7609544 v 2.824295 h 0.4464209 v -2.048373 l 1.6125813,2.048373 H 8.1737527 V 35.765293 H 7.7273319 Z m 3.6427331,-1.568546 h 0.895879 v 2.394577 h 0.458568 v -2.394577 h 0.897397 v -0.429718 h -2.251844 z m 5.900651,1.184382 h 1.457701 v -0.426682 h -1.457701 v -0.760737 h 1.630802 v -0.426681 h -2.084815 v 2.824295 h 2.103037 v -0.426681 h -1.649024 z m 7.15488,-0.744035 c 0.0039,-0.216616 -0.07863,-0.425866 -0.229284,-0.581562 -0.22218,-0.199477 -0.514135,-0.303162 -0.812364,-0.288503 h -1.22538 v 2.824295 H 22.6141 v -1.038612 h 0.649891 l 0.774404,1.038612 h 0.40846 l 0.06074,-0.121475 -0.750108,-0.999133 c 0.394552,-0.08047 0.675502,-0.431016 0.668112,-0.833622 z m -0.455531,0.01822 c 0,0.288503 -0.239913,0.473753 -0.607375,0.473753 H 22.617137 V 36.19501 h 0.74859 c 0.381128,0 0.601301,0.16551 0.601301,0.458568 z m 3.516703,-0.458568 h 0.897397 v 2.394577 h 0.45705 V 36.19501 h 0.897397 v -0.429718 h -2.251844 z m 6.117787,-0.449458 -1.287635,2.844035 h 0.481345 l 0.317353,-0.706074 h 1.352929 l 0.312798,0.706074 h 0.491974 l -1.287636,-2.844035 z m 0.675705,1.71128 h -0.982429 l 0.493492,-1.097831 z m 3.835575,-1.69154 h 0.454013 v 2.824295 h -0.454013 z m 5.574187,1.998264 -1.571584,-1.998264 h -0.394794 v 2.824295 h 0.444903 v -2.048373 l 1.614099,2.048373 h 0.352278 v -2.824295 h -0.444902 z m 5.404121,-0.601301 -0.932321,-1.396963 h -0.422126 v 2.824295 h 0.444903 v -1.990673 l 0.857917,1.257267 h 0.09566 l 0.857917,-1.260304 v 1.99371 h 0.452495 v -2.824295 h -0.422126 l -0.932321,1.396963 z m 5.262907,0.217137 h 1.459219 V 36.952711 H 54.35705 v -0.760737 h 1.630803 v -0.426681 h -2.083298 v 2.824295 h 2.103037 V 38.162907 H 54.35705 Z m 6.85423,0.384164 -1.571584,-1.998264 h -0.394794 v 2.824295 h 0.446421 v -2.048373 l 1.612582,2.048373 h 0.353796 V 35.765293 H 61.21128 Z m 3.641215,-1.568546 h 0.897397 v 2.394577 h 0.457049 V 36.19501 h 0.897397 v -0.429718 h -2.251843 z m 4.401952,1.043167 c 0.116383,2.53e-4 0.230799,0.03003 0.332538,0.08655 0.104779,0.05724 0.19114,0.143078 0.249024,0.247505 0.120474,0.20804 0.120474,0.464628 0,0.672668 -0.05774,0.10402 -0.143486,0.189768 -0.247506,0.247506 -0.207268,0.119306 -0.462363,0.119306 -0.669631,0 -0.104372,-0.05727 -0.190234,-0.143134 -0.247505,-0.247506 -0.059,-0.101418 -0.08993,-0.216723 -0.08959,-0.334056 1.88e-4,-0.118902 0.0316,-0.23567 0.09111,-0.338612 0.0574,-0.104789 0.143886,-0.190743 0.249024,-0.247505 0.101638,-0.05677 0.21612,-0.08657 0.332538,-0.08655 z m 0,0.132104 c -0.0929,1.45e-4 -0.184278,0.02364 -0.265727,0.06833 -0.08445,0.04647 -0.153963,0.115981 -0.200434,0.200434 -0.09625,0.167334 -0.09625,0.373229 0,0.540563 0.04595,0.08394 0.114977,0.152965 0.198916,0.198916 0.165969,0.09729 0.371558,0.09729 0.537527,0 0.08394,-0.04595 0.152964,-0.114977 0.198915,-0.198916 0.04748,-0.08163 0.07262,-0.174328 0.07289,-0.268763 3.33e-4,-0.09567 -0.02539,-0.189636 -0.07441,-0.2718 -0.04647,-0.08445 -0.115981,-0.153964 -0.200434,-0.200434 -0.08145,-0.04469 -0.172824,-0.06818 -0.265727,-0.06833 z m -0.303688,0.898915 V 37.55705 h 0.373536 c 0.039,0.0021 0.07719,0.01188 0.112364,0.02885 0.02754,0.01646 0.0501,0.04008 0.06529,0.06833 0.01838,0.03072 0.02784,0.06594 0.02733,0.101735 0.0011,0.04887 -0.01689,0.09624 -0.05011,0.132104 -0.03765,0.03857 -0.08761,0.06274 -0.141215,0.06833 0.01763,0.0056 0.0341,0.01432 0.04859,0.02581 0.01786,0.01667 0.03413,0.03497 0.04859,0.05466 0,0.0076 0.02278,0.03644 0.05315,0.08807 l 0.08351,0.142733 h -0.179175 l -0.06074,-0.115401 c -0.02321,-0.05665 -0.05725,-0.108228 -0.100217,-0.151844 -0.02834,-0.02134 -0.06326,-0.03209 -0.0987,-0.03037 h -0.03796 v 0.294577 z m 0.151844,-0.405423 h 0.0577 c 0.05079,0.0021 0.101662,-9.98e-4 0.151843,-0.0091 0.01895,-0.0056 0.0355,-0.01738 0.04707,-0.03341 0.01183,-0.01577 0.01822,-0.03495 0.01822,-0.05466 1.8e-5,-0.01901 -0.0058,-0.03756 -0.0167,-0.05315 -0.0122,-0.01605 -0.02923,-0.02776 -0.04859,-0.03341 -0.0501,-0.0088 -0.100996,-0.01239 -0.151843,-0.01063 h -0.0577 z"
         inkscape:connector-curvature="0"
         style="fill:#231f20;fill-rule:nonzero" />
      <path
         id="rings-181"
         d="m 34.463631,2.2142068e-4 0.280234,0.008997959 c 0.280557,0.01721443 0.561964,0.05928497 0.843159,0.12807184 v 0 l 0.502295,0.12572933 c 0.501705,0.12894584 1.001,0.26878727 1.492146,0.43073876 v 0 l 0.244391,0.0920807 c 0.557802,0.23659779 1.031662,0.61936259 1.488257,1.02161139 v 0 l 0.361198,0.3111531 c 0.363718,0.308472 0.731581,0.6124617 1.072869,0.9440182 v 0 l 0.253296,0.2619369 c 0.246228,0.2694133 0.473376,0.5586866 0.700524,0.8447001 v 0 l 0.362556,0.4628299 c 0.23935,0.3105254 0.473343,0.6252876 0.698097,0.946041 v 0 l 0.17328,0.2547421 c 0.39496,0.5992807 0.72076,1.2344431 0.901105,1.9412722 v 0 l 0.102428,0.3738196 c 0.14325,0.4971078 0.305254,0.9903776 0.390419,1.4970319 v 0 l 0.0484,0.2998442 c 0.123144,0.8006884 0.191517,1.6099924 0.02656,2.4227804 v 0 l -0.06311,0.347518 c -0.07686,0.465316 -0.132893,0.93605 -0.26835,1.38324 v 0 l -0.113439,0.349261 c -0.20069,0.578245 -0.459953,1.136544 -0.78457,1.664833 v 0 l -0.174723,0.278076 c -0.296052,0.459308 -0.619181,0.895753 -1.012039,1.277692 v 0 l -0.259394,0.241657 c -0.615641,0.549012 -1.304515,0.992585 -2.077596,1.300252 v 0 l -0.358818,0.144811 c -0.478608,0.194301 -0.959118,0.387972 -1.455593,0.514963 v 0 l -0.325729,0.07851 c -0.978737,0.221257 -1.971739,0.309629 -2.988009,0.147375 v 0 l -0.421183,-0.07632 c -1.253798,-0.254288 -2.420949,-0.733691 -3.531668,-1.360143 v 0 l -0.320737,-0.19151 C 29.51469,18.003931 28.870777,17.422164 28.29612,16.754358 v 0 l -0.18898,-0.197423 c -0.264806,-0.252014 -0.574201,-0.465198 -0.847232,-0.711924 v 0 L 27.07792,15.670558 C 26.667779,15.253165 26.360387,14.763334 26.182247,14.19904 v 0 l -0.183576,-0.606544 c -0.117734,-0.4059 -0.226248,-0.814674 -0.326026,-1.225127 v 0 l -0.0421,-0.22214 c -0.03246,-0.224502 -0.04061,-0.454957 -0.06612,-0.68116 v 0 l 0.01096,-0.256473 c 0.04576,-0.591971 0.229277,-1.140682 0.474331,-1.6883309 v 0 L 26.258391,9.0171706 C 26.324071,8.8480499 26.386437,8.6774292 26.44713,8.5060762 L 26.804478,7.4753126 26.965327,7.0049324 C 27.174693,6.3756651 27.37032,5.7408506 27.632062,5.1344175 v 0 L 27.758693,4.8598893 C 28.025488,4.3170741 28.372862,3.8125651 28.789471,3.361833 v 0 l 0.332214,-0.3682216 c 0.329513,-0.3709695 0.655022,-0.745943 1.013413,-1.0867592 v 0 l 0.255843,-0.2333703 c 0.693911,-0.6065073 1.481004,-1.08437269 2.358184,-1.38236511 v 0 l 0.276451,-0.0863417 C 33.488122,0.07288927 33.959299,0.00169123 34.434151,2.2142068e-4 v 0 z M 34.607825,0.71586931 C 33.29395,0.53153666 32.126712,0.94534002 31.046839,1.7162395 v 0 l -0.282083,0.2128901 c -0.551381,0.4387237 -1.029403,0.9518252 -1.494281,1.480199 v 0 L 29.045001,3.678164 C 28.245479,4.6783493 27.739579,5.8344855 27.33827,7.0454577 v 0 l -0.224129,0.6922921 c -0.14727,0.4622466 -0.292487,0.9251651 -0.449126,1.3841641 v 0 l -0.201629,0.5837505 c -0.130967,0.3898486 -0.24536,0.7838396 -0.28517,1.1986606 -0.07496,0.778577 0.115148,1.492902 0.551176,2.152172 v 0 l 0.0047,-0.401709 c 0.0046,-0.267906 0.0084,-0.535774 -0.0097,-0.802187 v 0 l -0.01553,-0.305873 c -0.02015,-0.610542 0.02772,-1.213719 0.18851,-1.8069921 v 0 l 0.07673,-0.2799171 c 0.0785,-0.279866 0.164744,-0.5581551 0.280681,-0.8220586 v 0 l 0.20747,-0.4657581 C 27.673031,7.7074132 27.895502,7.2476608 28.14561,6.8047037 v 0 l 0.18627,-0.3120158 c 0.386377,-0.6143855 0.85451,-1.1720851 1.362907,-1.6945197 v 0 L 29.881838,4.6074101 C 30.320959,4.164679 30.783313,3.7456882 31.364695,3.5004145 v 0 l 0.371202,-0.1452744 c 0.375375,-0.1363926 0.762017,-0.2474154 1.14866,-0.3445485 v 0 l 0.294484,-0.066863 c 1.177007,-0.2391574 2.342675,-0.1399333 3.491061,0.2554604 v 0 l 1.072433,0.3650995 v 0 l 1.072432,0.3650995 0.331682,0.1135809 c 0.221021,0.076178 0.441184,0.1547634 0.656531,0.2447155 v 0 l 0.25995,0.1211164 c 0.591368,0.3044925 1.081047,0.7551759 1.565422,1.2046055 v 0 l 0.109877,0.1118036 c 0.141585,0.1575537 0.26132,0.3466495 0.33308,0.538648 v 0 l 0.196921,0.5735038 c 0.123034,0.3853968 0.234067,0.7752731 0.360051,1.159774 v 0 l 0.08282,0.2872411 c 0.168428,0.6726097 0.167587,1.360809 0.09141,2.0420632 v 0 l -0.05259,0.380903 c -0.144933,0.883306 -0.443341,1.728246 -0.852093,2.532964 v 0 l -0.165816,0.311026 c -0.684733,1.225235 -1.625967,2.225017 -2.783075,3.03383 v 0 l -0.33135,0.222223 c -0.89251,0.573482 -1.856503,0.992829 -2.896845,1.228222 v 0 l -0.363422,0.07407 c -0.970548,0.176261 -1.952122,0.183764 -2.936584,0.0533 v 0 l -0.36702,-0.04263 v 0 l -0.367588,-0.03838 -0.0049,0.03646 v 0 l -0.0049,0.03636 0.209711,0.068 c 0.139571,0.0467 0.279272,0.09284 0.422725,0.118704 v 0 l 1.102669,0.187621 v 0 l 1.103424,0.18403 0.34251,0.0488 c 0.911811,0.102312 1.8113,-0.01322 2.700238,-0.231479 v 0 l 0.359547,-0.09327 c 0.715659,-0.196327 1.40942,-0.454721 2.058198,-0.835478 v 0 l 0.254321,-0.154326 c 0.669763,-0.420886 1.269195,-0.91978 1.727774,-1.573661 v 0 l 0.18607,-0.281534 c 0.473289,-0.760568 0.766727,-1.598304 0.960126,-2.481531 v 0 l 0.0645,-0.332475 c 0.131576,-0.775953 0.133105,-1.553305 0.05506,-2.335095 v 0 L 43.167756,9.9900351 C 43.104532,9.5375642 43.026462,9.0863866 43.005297,8.632091 v 0 l -0.0191,-0.2817377 c -0.07513,-0.8392186 -0.313773,-1.6232301 -0.79702,-2.318053 v 0 L 42.004312,5.7629625 C 41.330641,4.7710993 40.690837,3.7426699 39.690047,3.0288592 v 0 L 39.148215,2.6485295 C 38.602969,2.2724871 38.047005,1.9108836 37.476017,1.5779099 v 0 L 37.206054,1.4332158 C 36.476125,1.0739924 35.669571,0.91912938 34.872573,0.76078241 v 0 z m 0.254973,2.92936049 c -0.424993,-0.036586 -0.856662,-0.032615 -1.282687,-0.015179 v 0 l -0.363818,0.022317 c -0.363972,0.029699 -0.727607,0.081525 -1.08373,0.1553196 v 0 l -0.216901,0.051262 C 31.413946,3.992576 30.94517,4.2251175 30.55626,4.573792 v 0 L 30.248721,4.8587749 C 29.342629,5.7268274 28.587066,6.7141721 28.0308,7.8575458 v 0 l -0.146356,0.3130536 c -0.469357,1.0473658 -0.750279,2.1337476 -0.737795,3.2734386 v 0 l 0.0044,0.342752 c 0.02442,0.794709 0.150657,1.554272 0.445206,2.282487 v 0 l 0.06245,0.143545 c 0.154143,0.328369 0.370935,0.607677 0.726333,0.773361 v 0 l 0.173484,0.100558 c 0.111743,0.0753 0.218072,0.162285 0.333473,0.231912 v 0 l 0.303873,0.189934 c 0.403211,0.258405 0.802084,0.528775 1.238288,0.707067 0.838545,0.342422 1.714759,0.617192 2.636074,0.617192 v 0 h 0.01424 l 0.424951,-0.0038 c 0.567082,-0.0089 1.135277,-0.03598 1.694844,-0.11076 v 0 l 0.267056,-0.05142 c 0.353689,-0.08725 0.698782,-0.240913 1.046697,-0.360546 v 0 l 0.319667,-0.116115 c 0.844811,-0.32406 1.626467,-0.765978 2.295242,-1.38548 v 0 l 0.237592,-0.226942 c 1.320193,-1.300871 2.191072,-2.855994 2.378828,-4.7428458 v 0 l 0.01882,-0.1954136 C 41.834147,8.9208 41.855227,8.1807454 41.453913,7.5165931 v 0 L 41.269779,7.231479 C 41.141556,7.0445198 41.003591,6.8634959 40.862825,6.6862794 v 0 L 40.694641,6.48716 C 40.233312,5.972833 39.67045,5.590267 39.033926,5.3033611 v 0 L 38.122232,4.8860952 C 37.515422,4.6057217 36.90947,4.3234632 36.297696,4.054363 v 0 L 36.080308,3.9599884 C 35.788043,3.8358274 35.486489,3.7232286 35.180098,3.6806966 v 0 z m -1.391537,1.8306024 0.03526,0.073912 c 0.06826,0.1249422 0.182227,0.2525527 0.315349,0.2911876 v 0 l 0.01923,-0.026112 c 0.02268,-0.038533 0.03761,-0.084048 0.09416,-0.041919 v 0 l 0.105531,0.046516 c 0.278936,0.088471 0.5397,-0.090008 0.822462,-0.1124054 v 0 l 0.09914,-0.00309 c 0.213655,6.765e-4 0.504214,0.040492 0.59503,0.082715 v 0 l 0.01359,0.0035 c 0.106275,0.027773 0.805881,0.2183486 1.035093,0.4797736 v 0 l 0.0108,0.00671 c 0.08465,0.053033 0.646333,0.4132352 0.944158,0.815839 v 0 l 0.08256,0.1236451 c 0.207633,0.3507461 0.07833,0.5284317 0.249654,0.7664266 v 0 l 0.154959,0.2352108 0.0206,0.1290217 c 0.05013,0.3911078 -0.0099,0.8103599 -0.318425,1.0353157 v 0 l 0.176754,-0.1001567 0.006,0.1232267 c 0.0038,0.1755703 -0.01197,0.3883913 -0.08121,0.5446106 v 0 l 0.05822,0.00217 c 0.03489,-0.00637 0.06549,-0.023927 0.113114,-0.025859 v 0 h 0.0155 l -0.0468,0.068465 c -0.09261,0.1924185 0.04633,0.4542395 -0.207432,0.5610735 v 0 l -0.0498,10e-4 c -0.05099,-0.0012 -0.103428,-0.01164 -0.138294,-0.05331 v 0 l -0.05179,-0.102157 C 37.439553,10.091988 37.75025,9.7610061 37.494794,9.4707407 v 0 l -0.0327,0.050244 c -0.02335,0.055748 -0.02427,0.124747 -0.05347,0.17766 v 0 l -0.02655,0.052124 c -0.0171,0.035882 -0.03535,0.071297 -0.06894,0.089859 v 0 l -0.02147,-7.186e-4 c -0.01309,-0.00373 -0.02309,-0.013308 -0.02603,-0.02473 v 0 l 0.03774,-0.1366888 c 0.06773,-0.3202544 -0.0055,-0.6463444 -0.191944,-0.9077124 v 0 L 37.09559,8.7177799 C 37.08729,8.6613299 37.09439,8.598023 37.0521,8.5593776 v 0 l -0.07218,0.082104 C 36.877704,8.786756 36.860644,8.9715315 36.850145,9.155782 v 0 l -0.02597,0.010268 v 0 L 36.7947,9.166512 36.779116,9.051901 C 36.742553,8.8242386 36.669508,8.6079742 36.486041,8.4398405 v 0 l -0.07152,-0.060156 C 36.265184,8.26107 36.089321,8.1473611 36.089321,7.9435921 v 0 l -0.0046,-0.057299 c 0.0038,-0.038028 0.01476,-0.075067 -0.007,-0.1072351 v 0 l -0.05353,0.030238 c -0.0478,0.039549 -0.07958,0.1029264 -0.105466,0.1531937 v 0 l -0.02803,0.080986 c -0.02699,0.1135018 -0.01369,0.2452098 0.02501,0.3486168 v 0 l -0.06995,-0.07266 C 35.72044,8.1620885 35.679838,7.9367533 35.673574,7.7180824 v 0 L 35.635652,7.5887358 C 35.574708,7.4194264 35.471321,7.2645174 35.314396,7.1454884 v 0 l -0.03413,0.022171 c -0.03166,0.041133 -0.01563,0.1223065 -0.04436,0.1685676 v 0 l -0.02652,0.099063 c -0.02809,0.1678114 0.02192,0.3455528 0.113571,0.4792001 v 0 c -2.8e-4,0.016896 5.04e-4,0.024735 -0.0086,0.029102 v 0 h -0.0189 L 35.222885,7.847207 C 35.116683,7.6789786 35.08349,7.4753756 35.106902,7.2747472 v 0 l -0.07449,-0.080219 C 34.978562,7.1464682 34.91759,7.1081132 34.85695,7.0726697 v 0 L 34.85555,6.9556834 C 34.824486,6.6527959 34.582125,6.4214346 34.337774,6.2357632 v 0 L 34.26503,6.1438701 C 34.222317,6.079684 34.18819,6.0110931 34.144768,5.9467576 v 0 l -0.03815,0.019122 c -0.02136,0.019177 -0.03556,0.048154 -0.04841,0.068563 v 0 l -0.01963,0.048051 c -0.01453,0.050515 -0.01867,0.1051763 -0.05646,0.1347509 v 0 L 33.942683,6.1166933 C 33.8386,5.9370492 33.59827,5.8725355 33.49104,5.6781613 v 0 l -0.0315,0.006 c -0.02235,0.016565 -0.02205,0.059509 -0.04208,0.081052 v 0 l -0.0214,0.1079805 c -0.01536,0.1774031 0.06468,0.3416538 0.147511,0.4877944 v 0 l -0.02018,0.01243 c -0.0166,0.00414 -0.03701,0 -0.04633,-0.01243 v 0 l -0.01985,-0.021197 c -0.01767,-0.023173 -0.03158,-0.048472 -0.06683,-0.041669 v 0 l -0.01036,0.084164 c -0.0013,0.1655993 0.109613,0.3128454 0.250102,0.406037 v 0 l 0.08664,0.046583 c 0.209866,0.1002074 0.463848,0.1525967 0.554241,0.4004058 v 0 L 34.250844,7.24665 34.175794,7.168155 C 34.044901,7.0474069 33.88562,6.9775737 33.707354,6.9669701 v 0 l -0.02003,0.018897 0.06954,0.09848 c 0.07246,0.1397951 0.07928,0.3072621 0.204855,0.4269966 v 0 l 0.109162,0.074875 c 0.226146,0.1320202 0.497051,0.1609295 0.773603,0.1455955 v 0 l 0.01228,0.026362 v 0 l 1.89e-4,0.027307 -0.02394,0.028976 -0.08942,0.00735 v 0 l -0.09074,-0.00446 -0.06933,-0.004 c -0.04558,-0.00145 -0.08953,7.652e-4 -0.129846,0.013952 v 0 l 0.0686,0.092997 c 0.193007,0.2351163 0.465106,0.3640983 0.780904,0.3119132 v 0 l 0.05272,-0.014297 c 0.05425,-0.012703 0.111749,-0.017451 0.160315,0.014297 v 0 l 0.0082,0.022748 c 3.23e-4,0.027011 -0.03782,0.040395 -0.06765,0.035961 l -0.09768,-7.35e-5 c -0.193874,0.0057 -0.376324,0.050035 -0.502127,0.1971113 v 0 l 8.21e-4,0.016397 c 0.004,0.00914 0.01346,0.015435 0.01833,0.023414 v 0 l 0.114567,-0.010134 c 0.221968,2.534e-4 0.402721,0.1176339 0.57431,0.2440851 v 0 l 0.101436,0.047141 c 0.245713,0.077797 0.546779,-0.044275 0.738368,0.169802 v 0 l -0.09855,-0.026483 c -0.138993,-0.031006 -0.303738,-0.041951 -0.438893,0.00129 v 0 l -0.0075,0.00785 c -0.002,0.00691 8.22e-4,0.01663 8.22e-4,0.025784 v 0 l 0.05212,0.073029 c 0.118727,0.1774256 0.223781,0.3939278 0.453071,0.437581 v 0 l 0.09927,0.00519 c 0.268433,0.016367 0.557603,0.061633 0.654358,0.3462995 v 0 0.019653 l -0.03794,-0.013809 c -0.0313,-0.023427 -0.04694,-0.069938 -0.08539,-0.087608 v 0 l -0.07205,-0.057974 c -0.102557,-0.065398 -0.229205,-0.084387 -0.357305,-0.071284 v 0 l -0.01953,0.022551 0.07771,0.042991 c 0.150821,0.098683 0.268756,0.2699333 0.259794,0.4482172 v 0 l 0.0092,0.09408 c 0.03467,0.18739 0.164531,0.365181 0.345946,0.444119 v 0 l 0.05781,0.01949 c 0.0795,0.02793 0.167201,0.05693 0.24531,0.0068 v 0 l -0.01338,-0.03177 c -0.0145,-0.01911 -0.03751,-0.03429 -0.05314,-0.04672 v 0 l 0.07006,0.01686 c 0.120906,0.02117 0.258507,0.0047 0.352365,-0.09384 v 0 l -0.02231,0.06808 c -0.04327,0.08505 -0.135796,0.146592 -0.219449,0.177332 v 0 l 0.0037,0.0876 c -2.6e-5,0.145598 -0.0343,0.286821 -0.150733,0.388238 v 0 l -0.07874,0.04699 -0.01888,0.01348 v 0 l -0.02068,0.01008 -0.0043,0.0028 -0.01241,0.0028 c -0.01418,0.0032 -0.03542,0.008 -0.03534,0.0079 v 0 l -0.0147,0.0024 c -0.0068,0.0032 -0.01096,0.0083 -0.03153,0.0091 v 0 l -0.04294,0.03478 c -0.113182,0.06365 -0.304289,0.02008 -0.299108,0.191608 v 0 l 0.026,0.02019 c 0.01949,0.01006 0.04203,0.01303 0.05992,0.0071 v 0 l -0.03585,0.07231 c -0.0569,0.07857 -0.146576,0.09603 -0.225694,0.175248 v 0 l -0.02765,0.02931 c -0.03512,0.04058 -0.06358,0.09247 -0.08939,0.219255 v 0 l -0.02104,0.16383 c -0.03088,0.621 0.546867,0.852109 0.625131,1.484157 v 0 l -0.0046,0.05288 c -0.01375,0.04975 -0.05272,0.0896 -0.09694,0.114927 v 0 l -0.10395,0.01402 c -0.06949,0.0035 -0.139198,-0.0031 -0.208237,-0.0096 v 0 l -0.103589,-0.0087 v 0 l -0.101889,-9.14e-4 -0.281231,0.01958 c -0.734775,0.06847 -1.353206,0.26955 -1.976515,0.664633 v 0 l -0.184785,0.09895 c -0.311852,0.150293 -0.64387,0.228963 -1.007647,0.258464 v 0 l -0.04092,-0.0056 c -0.02562,-0.0096 -0.04715,-0.03018 -0.06,-0.05672 v 0 l 0.02638,-0.125623 c 0.05818,-0.246097 0.139429,-0.466264 0.07453,-0.749835 v 0 l -0.03994,-0.147299 c -0.06733,-0.265072 -0.06468,-0.375279 -0.08693,-0.732064 v 0 l -0.0191,-0.08275 c -0.05457,-0.163425 -0.20263,-0.310625 -0.359857,-0.373688 v 0 l -0.156313,-0.04988 c -0.212813,-0.0553 -0.441881,-0.06983 -0.671271,-0.09211 v 0 l -0.05755,-0.02793 c -0.07867,-0.03931 -0.160654,-0.08926 -0.192402,-0.178554 v 0 L 31.588,12.232383 c -0.01544,-0.169721 0.02183,-0.347085 0.06466,-0.499777 v 0 l -0.0203,-0.05091 c -0.03162,-0.04606 -0.08754,-0.08185 -0.08073,-0.145629 v 0 l 0.0025,-0.05746 c 0.02577,-0.08995 0.141796,-0.154277 0.07891,-0.244145 v 0 l -0.176628,-0.182297 0.01832,-0.05928 c 0.03063,-0.07769 0.07733,-0.151769 0.0351,-0.243585 v 0 l -0.05454,-0.03505 c -0.07765,-0.03621 -0.173514,-0.03357 -0.269866,-0.03084 v 0 l -0.08066,0.0013 c -0.08004,-3.72e-4 -0.157074,-0.0084 -0.220569,-0.04693 v 0 l -0.01649,-0.06938 c -0.009,-0.113534 0.06697,-0.216962 0.111481,-0.315754 v 0 l 0.09947,-0.104447 c 0.197059,-0.2580895 0.170437,-0.6081143 0.371837,-0.866506 v 0 l 0.07416,-0.092439 c 0.137283,-0.1897374 0.206548,-0.409226 0.175664,-0.6692555 v 0 l 0.04261,-0.1304521 c 0.07606,-0.1660923 0.213619,-0.3074153 0.226117,-0.5032437 v 0 l 0.02043,-0.1643784 c 0.0507,-0.2674432 0.17992,-0.5040468 0.317452,-0.736276 v 0 l -0.0072,-0.096551 c -0.0042,-0.1282329 0.01687,-0.2519182 0.108087,-0.3406104 v 0 l 0.169322,-0.1361879 -0.01546,0.052836 c -0.0233,0.078126 -0.05005,0.1809886 0.0069,0.2369252 v 0 l 0.02735,0.00511 c 0.01697,0.00194 0.03186,-0.00159 0.04748,-0.025775 v 0 l 0.02833,-0.093356 c 0.05526,-0.1613228 0.145902,-0.3410764 0.199445,-0.3860104 v 0 l 0.0039,0.044593 c 0.0033,0.063838 0.004,0.1413835 0.06339,0.1868383 v 0 l 0.04279,0.036037 c 0.04592,0.032025 0.10067,0.049506 0.159536,0.029852 v 0 l 0.0135,-0.034338 c -0.0032,-0.041141 -0.07903,-0.066801 -0.08165,-0.1140703 v 0 l -0.02594,-0.065833 c -0.02241,-0.093425 0.0027,-0.2046533 0.06084,-0.2762118 v 0 l 0.02159,-0.023867 c 0.01599,-0.00801 0.03464,-0.00246 0.05261,0.00308 v 0 l 0.02075,0.00568 c 0.02005,0.00402 0.03739,5.197e-4 0.04665,-0.033023 v 0 l 0.0059,-0.1113399 c 0.01939,-0.1445926 0.08474,-0.2728334 0.197018,-0.3738216 v 0 z"
         inkscape:connector-curvature="0"
         style="fill:url(#linearGradient-180)" />
    </g>
  </g>
  <style
     id="style815"
     type="text/css">
	.st0{fill:url(#SVGID_1_);}
	.st1{fill:#FFFFFF;}
</style>
</svg>
