<svg xmlns="http://www.w3.org/2000/svg" xml:space="preserve" style="enable-background:new 0 0 512 512" viewBox="0 0 512 512"><title>Oakland Athletics cap logo</title><path d="M 0,512 H 512 V 0 H 0 Z" fill="#003831" /><path d="m 440.48908,217.17447 c -21.77608,-4.5054 -39.79765,-9.01079 -34.54136,-24.77967 4.5054,-13.51618 36.79405,-12.01439 48.05754,4.50539 l 17.27068,-17.27067 c -19.52338,-27.03237 -67.58092,-30.78687 -87.10429,-3.7545 -27.03237,37.54495 3.75449,57.81923 38.29585,66.83001 14.26708,3.7545 32.28866,12.01439 23.27787,25.53057 -7.50899,12.01439 -36.79405,6.00719 -59.32102,-14.26708 l -15.01798,20.27427 c 13.51618,15.76888 66.07911,48.05754 98.36777,8.25989 27.78326,-31.53776 -7.50899,-60.82282 -29.28506,-65.32821 z M 315.08894,203.65828 h 8.25989 l 18.02157,-24.02876 v -25.53057 h -27.03236 v 27.78326 h 9.01079 z m 79.5953,136.66363 c -46.55574,50.31024 -60.82283,30.78686 -69.08272,6.75809 l -75.0899,-226.77151 c -6.75809,-21.025171 -19.52338,-39.046748 -42.05035,-45.804839 -33.79045,-9.010789 -69.83361,6.758091 -82.59889,60.822819 12.01438,-17.27068 34.54136,-32.28866 54.81563,-19.52337 17.27068,10.51258 17.27068,21.77607 10.51259,42.80124 l -5.2563,15.76888 c -21.02517,-22.52697 -66.07911,-18.02158 -71.33541,32.28866 13.51619,-12.76528 63.82642,-11.26349 48.80844,33.03956 l -45.05394,132.15823 c -37.544952,0 -75.089904,19.52337 -86.35339,66.07911 10.512587,-16.51977 87.10429,-49.55933 156.9379,0.7509 l 44.30304,-54.06473 c -3.00359,-3.00359 -27.03236,-8.25989 -45.05394,9.76169 -9.76169,-8.25989 -21.77607,-14.26708 -35.29226,-18.02158 l 23.27788,-68.33181 h 85.60249 l 30.03596,90.10789 c 12.01438,36.04315 39.04675,56.31742 57.06832,29.28506 0,0 47.30664,-71.33541 53.31384,-79.5953 5.25629,-7.50899 -6.0072,-8.25989 -7.50899,-7.50899 z M 219.72476,181.88221 249.76072,272.741 H 188.9379 Z" fill="#f9f9f9" /></svg>